<?xml version="1.0" standalone="no"?>
<!DOCTYPE svg PUBLIC "-//W3C//DTD SVG 20010904//EN"
 "http://www.w3.org/TR/2001/REC-SVG-20010904/DTD/svg10.dtd">
<svg version="1.0" xmlns="http://www.w3.org/2000/svg"
 width="700.000000pt" height="700.000000pt" viewBox="0 0 700.000000 700.000000"
 preserveAspectRatio="xMidYMid meet">
<metadata>
Created by potrace 1.14, written by Peter Selinger 2001-2017
</metadata>
<g transform="translate(0.000000,700.000000) scale(0.100000,-0.100000)"
fill="#000000" stroke="none">
<path d="M1800 6515 c-176 -33 -332 -150 -410 -308 -50 -100 -60 -168 -36
-249 18 -65 79 -139 138 -169 22 -11 470 -177 996 -369 4274 -1556 4006 -1460
4079 -1460 189 0 303 144 303 385 0 147 -41 263 -133 377 -72 88 -162 142
-349 210 -1823 665 -4313 1569 -4343 1576 -72 19 -168 21 -245 7z"/>
<path d="M1023 4941 c-59 -27 -99 -59 -127 -100 -24 -34 -708 -1894 -747
-2031 -23 -80 -25 -222 -4 -303 34 -131 121 -255 232 -331 60 -41 164 -82 808
-316 406 -148 741 -267 743 -265 3 3 117 647 253 1432 136 786 250 1440 253
1454 l5 26 -612 224 c-563 205 -618 223 -687 226 -58 3 -84 -1 -117 -16z"/>
<path d="M3100 4000 c0 -10 -144 -844 -156 -903 l-6 -28 334 3 c304 4 340 6
413 26 217 59 357 180 422 363 22 61 26 93 27 179 1 100 -1 109 -32 173 -42
84 -91 124 -204 163 l-83 29 -357 3 c-259 2 -358 0 -358 -8z"/>
<path d="M4877 3520 c-55 -291 -226 -505 -527 -659 l-103 -54 74 -36 c103 -50
219 -166 276 -277 73 -140 88 -211 88 -414 -1 -156 -4 -187 -28 -284 -51 -205
-145 -375 -284 -512 -150 -149 -340 -251 -591 -318 l-82 -22 622 -226 c701
-255 720 -260 868 -234 186 33 340 146 419 309 55 111 741 2000 748 2058 11
93 -45 211 -126 264 -31 21 -1307 495 -1331 495 -3 0 -14 -41 -23 -90z"/>
<path d="M2845 2518 c-2 -7 -40 -224 -85 -483 -45 -259 -84 -480 -87 -493 l-6
-24 374 4 c345 4 380 6 452 26 121 33 211 85 298 172 121 119 164 232 164 425
-1 100 -3 116 -29 173 -52 114 -152 180 -304 202 -105 15 -772 13 -777 -2z"/>
</g>
</svg>
